<svg height="512" viewBox="0 0 512 512" width="512" xmlns="http://www.w3.org/2000/svg"><g id="flat"><path d="m192 128-40-22.857 16-33.143 24 8z" fill="#e82f3e"/><path d="m488 256-48-8-72 112h-88v48h104.733a103.264 103.264 0 0 0 57.282-17.344 103.265 103.265 0 0 0 45.985-85.923z" fill="#6ee7f5"/><path d="m438.752 240 1.167 40.083a76.444 76.444 0 0 1 -76.366 79.917l-40-24h7.072a52.157 52.157 0 0 0 25.03-6.283 67.755 67.755 0 0 0 33.587-74.117l-1.689-15.6z" fill="#2fbbdf"/><path d="m238.132 304h-118.585a131.329 131.329 0 0 0 -84.074 30.439 31.886 31.886 0 0 0 -11.473 24.496 31.886 31.886 0 0 0 14.2 26.531l.716.478a131.335 131.335 0 0 0 72.847 22.056h133.389a183.584 183.584 0 0 0 94.45-26.161l36.398-21.839-32.593-22.815a183.573 183.573 0 0 0 -105.275-33.185z" fill="#2ad3b3"/><path d="m376 360-13.27 7.96-337.71-1.02a31.883 31.883 0 0 1 0-16l339.51 1.03z" fill="#8ed2ff"/><path d="m376 360-36.4 21.84a183.566 183.566 0 0 1 -94.45 26.16h-133.39a131.253 131.253 0 0 1 -72.84-22.06l-.72-.47a31.881 31.881 0 0 1 -14.2-26.52z" fill="#ea9d2d"/><path d="m376 360-36.4 21.84a183.566 183.566 0 0 1 -94.45 26.16h-133.39a131.253 131.253 0 0 1 -72.84-22.06l-.72-.47a31.881 31.881 0 0 1 -14.2-26.52z" fill="#27c5a7"/><path d="m248 200h-66.945a26.968 26.968 0 0 0 -26.162 20.427 26.972 26.972 0 0 0 3.724 21.5l12.046 18.073 2.392-8.583c3.539-10.617 10.494-18.417 21.685-18.417h48.26l10-17z" fill="#0a6fa2"/><path d="m199.273 304 8.727-24h73.751a36 36 0 0 0 32.2-19.9l.094-.189a36 36 0 0 0 2.726-24.831l-4.771-19.08h-64l-8 16h-44.8a26 26 0 0 0 -24.85 18.354l-16.504 53.646z" fill="#0296e5"/><path d="m248 96 8.835 8.835a153.128 153.128 0 0 1 25.58 33.913l17.93 32.272a92.622 92.622 0 0 1 11.655 44.98h-64l-16-72v-56z" fill="#ff3444"/><path d="m192 88v40l16 16h24l16-16v-40h-24l-16-16z" fill="#f6bb92"/><path d="m264 96v-32l-16-24h-32l-24 16v32l16-16 16 16h24z" fill="#683b0d"/><path d="m248 88h8a16 16 0 0 1 16 16 16 16 0 0 1 -16 16h-8a0 0 0 0 1 0 0v-32a0 0 0 0 1 0 0z" fill="#e6af89"/><path d="m152 105.143-24-9.143-56-8-8-24 24-16 16 8 40 8 24 8z" fill="#f6bb92"/><path d="m280 184-32-40h-24l-3.183 9.549a28 28 0 0 0 4.7 26.346l22.483 28.105z" fill="#e82f3e"/><path d="m248 208 64 72 8 16h24l8-24-72-88z" fill="#f6bb92"/><path d="m376 360-13.27 7.96-337.71-1.02a31.883 31.883 0 0 1 0-16l339.51 1.03z" fill="#04957c"/><path d="m488 170.731a48.081 48.081 0 0 0 -44.8 6.87 39.969 39.969 0 0 0 -41.19 11.947 32 32 0 1 0 0 52.9 39.969 39.969 0 0 0 41.19 11.952 48.081 48.081 0 0 0 44.8 6.87z" fill="#eaeae8"/><path d="m120 448h-72a8 8 0 0 1 0-16h72a8 8 0 0 1 0 16z" fill="#2fbbdf"/><path d="m168 448h-16a8 8 0 0 1 0-16h16a8 8 0 0 1 0 16z" fill="#6ee7f5"/><path d="m304 448h-104a8 8 0 0 1 0-16h104a8 8 0 0 1 0 16z" fill="#2fbbdf"/><path d="m360 448h-24a8 8 0 0 1 0-16h24a8 8 0 0 1 0 16z" fill="#6ee7f5"/><path d="m456 448h-64a8 8 0 0 1 0-16h64a8 8 0 0 1 0 16z" fill="#2fbbdf"/><path d="m184 480h-96a8 8 0 0 1 0-16h96a8 8 0 0 1 0 16z" fill="#2fbbdf"/><path d="m288 480h-72a8 8 0 0 1 0-16h72a8 8 0 0 1 0 16z" fill="#6ee7f5"/><path d="m416 480h-96a8 8 0 0 1 0-16h96a8 8 0 0 1 0 16z" fill="#2fbbdf"/><path d="m488 416h-464a8 8 0 0 1 0-16h464a8 8 0 0 1 0 16z" fill="#2fbbdf"/><circle cx="344" cy="144" fill="#6ee7f5" r="8"/><circle cx="376" cy="96" fill="#2fbbdf" r="8"/><circle cx="440" cy="128" fill="#6ee7f5" r="8"/><circle cx="64" cy="248" fill="#6ee7f5" r="8"/><circle cx="112" cy="272" fill="#2fbbdf" r="8"/><g fill="#f6bb92"><path d="m202.716 294.532 29.284 33.468-8 24 24 16 32-40-40-48h-32z"/><path d="m153.846 304-9.846 32-24 8v24h56l23.273-64z"/></g></g></svg>